<svg width="20" height="21" viewBox="0 0 20 21" fill="none" xmlns="http://www.w3.org/2000/svg">
<path d="M3.43015 19.1814L17.1241 5.49992L14.9277 3.2908L1.22103 16.9848L0.0286064 19.7713C-0.0299687 19.922 0.00141089 20.0621 0.122745 20.1918C0.244079 20.3215 0.380057 20.3571 0.53068 20.2986L3.43015 19.1814ZM18.2287 4.42047L19.4964 3.17784C19.8144 2.85149 19.9818 2.52514 19.9986 2.1988C20.0153 1.87245 19.8814 1.56284 19.5969 1.26996L19.1701 0.843201C18.8856 0.558694 18.5781 0.428992 18.2476 0.454095C17.917 0.479198 17.5928 0.646556 17.2748 0.956168L16.0071 2.21135L18.2287 4.42047Z" fill="white"/>
</svg>
