<svg width="30" height="30" viewBox="0 0 30 30" fill="none" xmlns="http://www.w3.org/2000/svg">
<path d="M25.1625 5.175C24.7641 5.18907 24.3984 5.4 24.1875 5.7375L12.9 23.0063L5.5875 16.6875C5.27343 16.3617 4.80234 16.2398 4.36875 16.3758C3.9375 16.5094 3.6164 16.875 3.5414 17.3203C3.4664 17.768 3.64687 18.218 4.0125 18.4875L12.375 25.725C12.6375 25.9477 12.9844 26.0461 13.3242 25.9969C13.6664 25.9453 13.9687 25.7508 14.1562 25.4625L26.2125 7.05001C26.4703 6.67266 26.4914 6.18516 26.2687 5.78673C26.0461 5.39063 25.6172 5.15391 25.1625 5.175Z" fill="white"/>
</svg>
