<svg width="20" height="26" viewBox="0 0 20 26" fill="none" xmlns="http://www.w3.org/2000/svg">
<g clip-path="url(#clip0_5_3)">
<path d="M5.09035 22.7362H14.9097C15.5499 22.7362 16.0541 22.5641 16.4223 22.2199C16.7906 21.8757 16.9885 21.3836 17.0161 20.7434L17.6769 5.65824H19.2256C19.439 5.65824 19.6214 5.5808 19.7729 5.42593C19.9243 5.27104 20 5.08691 20 4.87352C20 4.66013 19.9243 4.47772 19.7729 4.32628C19.6214 4.17484 19.439 4.09912 19.2256 4.09912H0.774394C0.567889 4.09912 0.387197 4.17656 0.232319 4.33144C0.0774395 4.48633 0 4.66702 0 4.87352C0 5.08691 0.0774395 5.27104 0.232319 5.42593C0.387197 5.5808 0.567889 5.65824 0.774394 5.65824H2.33351L2.99432 20.7434C3.02185 21.3836 3.21975 21.8757 3.58802 22.2199C3.95629 22.5641 4.45707 22.7362 5.09035 22.7362ZM6.73207 19.7831C6.54621 19.7831 6.39306 19.7281 6.27259 19.618C6.15213 19.5078 6.0919 19.3598 6.0919 19.174L5.77181 7.92979C5.77181 7.75082 5.83032 7.60455 5.94735 7.49097C6.06437 7.37739 6.22269 7.32061 6.42231 7.32061C6.60128 7.32061 6.75099 7.37567 6.87145 7.48581C6.99191 7.59595 7.05559 7.7405 7.06248 7.91946L7.37223 19.174C7.37911 19.353 7.32405 19.4993 7.20703 19.6128C7.09001 19.7264 6.93169 19.7831 6.73207 19.7831ZM10.0052 19.7831C9.80555 19.7831 9.64379 19.7264 9.51989 19.6128C9.39598 19.4993 9.33402 19.353 9.33402 19.174V7.92979C9.33402 7.75082 9.39598 7.60455 9.51989 7.49097C9.64379 7.37739 9.80555 7.32061 10.0052 7.32061C10.1979 7.32061 10.3562 7.37739 10.4801 7.49097C10.604 7.60455 10.666 7.75082 10.666 7.92979V19.174C10.666 19.353 10.604 19.4993 10.4801 19.6128C10.3562 19.7264 10.1979 19.7831 10.0052 19.7831ZM13.2679 19.7831C13.0683 19.7831 12.91 19.7264 12.793 19.6128C12.676 19.4993 12.6209 19.353 12.6278 19.174L12.9375 7.92979C12.9444 7.74394 13.0081 7.59595 13.1286 7.48581C13.249 7.37567 13.3987 7.32061 13.5777 7.32061C13.7773 7.32061 13.9356 7.37739 14.0527 7.49097C14.1697 7.60455 14.2282 7.75082 14.2282 7.92979L13.9081 19.174C13.9081 19.3598 13.8479 19.5078 13.7274 19.618C13.607 19.7281 13.4538 19.7831 13.2679 19.7831ZM5.35881 4.42953H7.22768V2.62262C7.22768 2.36105 7.31028 2.1511 7.47548 1.99278C7.64069 1.83446 7.8644 1.7553 8.14663 1.7553H11.8431C12.1253 1.7553 12.349 1.83446 12.5142 1.99278C12.6794 2.1511 12.762 2.36105 12.762 2.62262V4.42953H14.6205V2.51936C14.6205 1.74153 14.3813 1.12718 13.9029 0.676304C13.4245 0.225435 12.7723 0 11.9463 0H8.03305C7.20703 0 6.55481 0.225435 6.07641 0.676304C5.59801 1.12718 5.35881 1.74153 5.35881 2.51936V4.42953Z" fill="white"/>
</g>
<defs>
<clipPath id="clip0_5_3">
<rect width="20" height="25.0594" fill="white"/>
</clipPath>
</defs>
</svg>
